<svg aria-hidden="true" style="position:absolute;width:0;height:0;overflow:hidden" xmlns="http://www.w3.org/2000/svg">
  <defs>
    <symbol id="icon-logo" viewBox="0 0 702 302">
      <path d="M123.451 178.187c-0.28-0.549-0.494-0.973-0.713-1.393-2.697-5.176-9.196-8.538-14.967-7.743-4.955 0.682-9.084 4.803-10.535 10.619-1.564 6.272-0.435 12.319 1.821 18.198 3.68 9.587 9.508 17.787 16.686 25.043 4.964 5.018 8.924 4.933 13.81-0.172 6.784-7.089 12.289-15.048 16.108-24.119 2.251-5.344 3.909-10.849 4.16-16.694 0.182-4.221-0.362-8.286-2.764-11.909-3.051-4.6-8.070-5.956-13.007-3.527-3.069 1.51-5.495 3.765-7.41 6.561-1.098 1.603-2.057 3.301-3.19 5.134zM218.992 205.137c-0.113 7.905-1.894 15.436-5.534 22.433-6.177 11.871-15.113 21.073-27.077 27.243-11.793 6.080-23.878 6.774-36.227 1.935-5.012-1.965-10.010-3.996-14.898-6.249-8.88-4.093-17.723-4.054-26.805-0.653-6.378 2.388-12.852 4.565-19.392 6.458-6.774 1.961-13.746 2.676-20.814 1.87-6.11-0.697-11.271-3.403-15.743-7.499-5.704-5.222-10.268-11.32-13.148-18.512-3.691-9.216-2.804-18.108 2.57-26.506 4.207-6.575 9.887-11.821 15.389-17.247 4-3.945 7.916-7.996 11.6-12.233 4.251-4.891 6.789-10.792 8.893-16.856 1.954-5.626 3.727-11.312 5.655-16.947 1.393-4.071 3.948-7.457 6.473-10.889 6.079-8.261 14.751-11.877 24.325-14.004 11.349-2.523 21.24 0.731 29.68 8.196 5.194 4.593 9.689 9.972 14.523 14.975 8.233 8.52 16.967 16.478 26.752 23.199 4.871 3.346 9.983 6.345 14.813 9.745 6.911 4.865 12.742 10.768 16.301 18.603 1.864 4.104 2.6 8.455 2.663 12.938z"></path>
      <path d="M107.553 87.925c0.019 6.328-1.102 13.161-4.101 19.58-3.209 6.866-7.851 12.298-15.486 14.411-6.282 1.74-12.082 0.339-17.489-3.039-7.113-4.442-11.923-10.888-15.501-18.302-5.195-10.767-7.197-22.157-6.133-34.061 0.629-7.032 2.617-13.604 6.546-19.583 6.775-10.31 18.953-13.224 29.541-6.95 6.87 4.071 11.682 10.013 15.341 16.954 4.987 9.459 7.362 19.576 7.281 30.989z"></path>
      <path d="M181.498 69.072c0.011 12.893-2.369 23.711-8.233 33.609-3.279 5.535-7.473 10.246-13.271 13.276-8.476 4.429-17.807 2.807-24.461-4.12-5.267-5.483-8.125-12.157-9.656-19.461-2.645-12.628-1.28-24.963 3.192-36.961 2.164-5.807 5.326-11.121 9.871-15.408 4.187-3.95 8.958-7.044 14.903-7.538 7.564-0.628 13.502 2.577 18.25 8.243 4.893 5.839 7.336 12.765 8.549 20.157 0.523 3.187 0.68 6.434 0.858 8.205z"></path>
      <path d="M4.176 131.225c0.105-5.758 1.204-11.172 4.627-15.868 4.473-6.138 10.736-8.402 18.136-7.939 7.487 0.469 13.86 3.703 19.583 8.266 10.193 8.127 16.934 18.503 19.615 31.341 1.187 5.679 1.275 11.412-0.712 16.944-3.415 9.511-11.207 14.423-21.363 13.637-6.318-0.489-11.879-3.015-16.982-6.612-10.999-7.753-18.080-18.292-21.666-31.174-0.77-2.765-0.845-5.725-1.24-8.595z"></path>
      <path d="M235.588 113.262c-1.705 17.885-8.981 31.711-23.091 41.669-3.919 2.765-8.326 4.366-13.14 4.854-8.14 0.825-15.541-3.757-18.601-11.599-2.689-6.893-2.533-13.947-0.841-20.965 3.256-13.509 10.518-24.422 21.93-32.422 5.051-3.541 10.783-4.987 16.946-4.473 7.165 0.598 13.221 5.973 15.316 13.878 0.846 3.197 1.087 6.551 1.482 9.059z"></path>
      <path d="M571.061 172.584h16.464l-21.707 26.265 23.619 28.52h-16.956l-22.395-27.785v27.785h-14.944v-54.785h14.944v26.608l20.975-26.608z"></path>
      <path d="M524.804 199.879c0 4.574-0.62 8.624-1.861 12.153-1.21 3.528-2.99 6.517-5.341 8.967-2.321 2.418-5.129 4.247-8.43 5.488-3.266 1.241-6.958 1.862-11.074 1.862-3.854 0-7.399-0.621-10.633-1.862-3.201-1.241-5.996-3.071-8.379-5.488-2.353-2.45-4.181-5.439-5.489-8.967-1.273-3.528-1.91-7.579-1.91-12.153 0-6.076 1.078-11.221 3.234-15.436s5.227-7.416 9.211-9.604c3.986-2.189 8.739-3.283 14.261-3.283 5.129 0 9.669 1.094 13.622 3.283 3.984 2.189 7.104 5.391 9.36 9.604 2.286 4.214 3.429 9.36 3.429 15.436zM486.926 199.879c0 3.594 0.393 6.615 1.176 9.066 0.785 2.45 2.010 4.296 3.675 5.537s3.838 1.862 6.519 1.862c2.646 0 4.785-0.621 6.419-1.862 1.666-1.241 2.874-3.087 3.626-5.537 0.783-2.45 1.176-5.472 1.176-9.066 0-3.626-0.393-6.632-1.176-9.017-0.753-2.417-1.961-4.231-3.626-5.439s-3.84-1.813-6.519-1.813c-3.952 0-6.827 1.356-8.623 4.067-1.765 2.712-2.646 6.779-2.646 12.202z"></path>
      <path d="M461.342 172.584v54.785h-14.993v-43.563h-19.846v43.563h-14.947v-54.785h49.786z"></path>
      <path d="M375.335 171.456c7.35 0 12.986 1.601 16.907 4.802 3.919 3.201 5.88 8.069 5.88 14.603v36.507h-10.438l-2.892-7.449h-0.39c-1.568 1.96-3.169 3.561-4.804 4.802-1.633 1.241-3.51 2.156-5.634 2.744s-4.704 0.882-7.743 0.882c-3.234 0-6.142-0.621-8.723-1.862-2.548-1.241-4.558-3.136-6.026-5.684-1.47-2.581-2.207-5.848-2.207-9.801 0-5.815 2.042-10.095 6.126-12.839 4.084-2.777 10.21-4.312 18.375-4.606l9.506-0.294v-2.401c0-2.875-0.75-4.982-2.253-6.321s-3.594-2.009-6.272-2.009c-2.646 0-5.243 0.376-7.792 1.127s-5.097 1.699-7.643 2.842l-4.951-10.095c2.909-1.535 6.159-2.744 9.752-3.626 3.626-0.882 7.367-1.323 11.221-1.323zM383.273 201.985l-5.782 0.196c-4.834 0.131-8.198 0.996-10.094 2.597-1.863 1.601-2.792 3.708-2.792 6.321 0 2.287 0.669 3.92 2.010 4.9 1.338 0.947 3.085 1.421 5.243 1.421 3.201 0 5.896-0.947 8.084-2.842 2.221-1.895 3.331-4.59 3.331-8.086v-4.508z"></path>
      <path d="M337.994 227.369h-15.142v-58.999h-17.542c-0.393 3.071-0.818 6.419-1.275 10.045s-0.929 7.285-1.419 10.976c-0.49 3.692-1.013 7.203-1.568 10.535-0.523 3.332-1.045 6.256-1.568 8.772-0.85 4.181-2.010 7.743-3.48 10.683-1.438 2.908-3.415 5.129-5.929 6.664-2.483 1.536-5.733 2.303-9.752 2.303-1.34 0-2.63-0.098-3.87-0.294-1.21-0.196-2.337-0.457-3.382-0.784v-12.447c0.85 0.294 1.698 0.539 2.548 0.735 0.85 0.163 1.78 0.245 2.792 0.245 1.308 0 2.386-0.425 3.234-1.274 0.883-0.882 1.668-2.369 2.353-4.46 0.685-2.123 1.373-5.047 2.058-8.771 0.293-1.634 0.685-3.937 1.176-6.909 0.49-3.005 1.045-6.517 1.666-10.535 0.623-4.051 1.259-8.461 1.912-13.23 0.685-4.769 1.34-9.735 1.961-14.897h45.228v71.642z"></path>
      <path d="M674.608 79.705c7.35 0 12.986 1.601 16.907 4.802 3.919 3.201 5.88 8.069 5.88 14.603v36.507h-10.438l-2.892-7.448h-0.39c-1.568 1.96-3.169 3.561-4.804 4.802-1.633 1.241-3.51 2.156-5.634 2.744s-4.704 0.882-7.743 0.882c-3.234 0-6.142-0.621-8.723-1.862-2.548-1.241-4.558-3.136-6.026-5.684-1.47-2.581-2.207-5.848-2.207-9.801 0-5.815 2.042-10.095 6.126-12.839 4.084-2.777 10.21-4.312 18.375-4.606l9.508-0.294v-2.401c0-2.875-0.753-4.982-2.256-6.321s-3.594-2.009-6.272-2.009c-2.646 0-5.243 0.376-7.792 1.127s-5.097 1.699-7.643 2.842l-4.951-10.095c2.909-1.535 6.159-2.744 9.752-3.626 3.626-0.882 7.367-1.323 11.221-1.323zM682.548 110.234l-5.785 0.196c-4.834 0.131-8.198 0.996-10.094 2.597-1.861 1.601-2.792 3.708-2.792 6.321 0 2.287 0.669 3.92 2.010 4.9 1.338 0.947 3.087 1.421 5.243 1.421 3.201 0 5.896-0.947 8.084-2.842 2.221-1.895 3.334-4.59 3.334-8.086v-4.508z"></path>
      <path d="M627.953 80.832h16.464l-21.707 26.265 23.619 28.52h-16.954l-22.395-27.785v27.785h-14.947v-54.785h14.947v26.608l20.973-26.608z"></path>
      <path d="M542.545 80.832v21.071h20.875v-21.071h14.947v54.785h-14.947v-22.59h-20.875v22.59h-14.947v-54.785h14.947z"></path>
      <path d="M471.731 80.832v21.659c0 1.111-0.049 2.515-0.149 4.214-0.065 1.666-0.163 3.365-0.293 5.096s-0.262 3.283-0.393 4.655c-0.13 1.372-0.228 2.303-0.293 2.793l25.284-38.418h17.983v54.785h-14.454v-21.855c0-1.797 0.065-3.773 0.195-5.929 0.13-2.189 0.279-4.247 0.441-6.174s0.279-3.381 0.344-4.361l-25.189 38.32h-17.934v-54.785h14.456z"></path>
      <path d="M449.046 92.054h-17.937v43.563h-14.944v-43.563h-17.985v-11.221h50.866v11.221z"></path>
      <path d="M367.504 79.705c7.35 0 12.984 1.601 16.905 4.802 3.919 3.201 5.88 8.069 5.88 14.603v36.507h-10.438l-2.89-7.448h-0.393c-1.568 1.96-3.169 3.561-4.802 4.802s-3.513 2.156-5.636 2.744c-2.123 0.588-4.704 0.882-7.743 0.882-3.234 0-6.142-0.621-8.723-1.862-2.548-1.241-4.556-3.136-6.026-5.684-1.47-2.581-2.205-5.848-2.205-9.801 0-5.815 2.042-10.095 6.124-12.839 4.084-2.777 10.21-4.312 18.378-4.606l9.506-0.294v-2.401c0-2.875-0.753-4.982-2.256-6.321-1.501-1.339-3.592-2.009-6.272-2.009-2.646 0-5.243 0.376-7.792 1.127-2.546 0.751-5.094 1.699-7.643 2.842l-4.951-10.095c2.909-1.535 6.159-2.744 9.752-3.626 3.626-0.882 7.367-1.323 11.223-1.323zM375.442 110.234l-5.782 0.196c-4.837 0.131-8.201 0.996-10.096 2.597-1.861 1.601-2.792 3.708-2.792 6.321 0 2.287 0.669 3.92 2.010 4.9 1.338 0.947 3.087 1.421 5.243 1.421 3.201 0 5.896-0.947 8.084-2.842 2.223-1.895 3.334-4.59 3.334-8.086v-4.508z"></path>
      <path d="M339.227 135.617h-17.346l-16.661-27.099-16.661 27.099h-16.268l23.765-36.948-22.248-34.694h16.761l15.434 25.775 15.142-25.775h16.366l-22.492 35.527 24.209 36.115z"></path>
    </symbol>
    <symbol id="icon-facebook" viewBox="0 0 32 32">
      <path d="M29.333 16.405c0-7.409-5.97-13.415-13.333-13.415s-13.333 6.006-13.333 13.415c0 6.696 4.876 12.245 11.25 13.252v-9.374h-3.385v-3.878h3.385v-2.955c0-3.362 1.991-5.219 5.036-5.219 1.459 0 2.985 0.262 2.985 0.262v3.301h-1.681c-1.656 0-2.173 1.034-2.173 2.095v2.516h3.698l-0.591 3.878h-3.107v9.374c6.374-1.006 11.25-6.556 11.25-13.252z"></path>
    </symbol>
    <symbol id="icon-instagram" viewBox="0 0 32 32">
      <path d="M15.998 6.161c3.206 0 3.585 0.014 4.846 0.071 1.172 0.052 1.804 0.248 2.226 0.412 0.558 0.216 0.961 0.478 1.378 0.895 0.422 0.422 0.679 0.82 0.9 1.378 0.164 0.422 0.361 1.059 0.412 2.226 0.056 1.266 0.070 1.645 0.070 4.847s-0.014 3.585-0.070 4.847c-0.052 1.172-0.248 1.804-0.412 2.227-0.216 0.558-0.478 0.961-0.895 1.378-0.422 0.422-0.82 0.679-1.378 0.9-0.422 0.164-1.060 0.361-2.226 0.412-1.266 0.056-1.645 0.070-4.847 0.070s-3.585-0.014-4.847-0.070c-1.172-0.052-1.804-0.248-2.226-0.412-0.558-0.216-0.961-0.478-1.378-0.895-0.422-0.422-0.679-0.82-0.9-1.378-0.164-0.422-0.361-1.060-0.412-2.227-0.056-1.266-0.071-1.645-0.071-4.847s0.014-3.585 0.071-4.847c0.052-1.172 0.248-1.804 0.412-2.226 0.216-0.558 0.478-0.961 0.895-1.378 0.422-0.422 0.82-0.679 1.378-0.9 0.422-0.164 1.059-0.361 2.226-0.412 1.261-0.056 1.641-0.071 4.847-0.071h0.001zM15.998 4.001c-3.258 0-3.665 0.014-4.945 0.071-1.275 0.056-2.152 0.262-2.91 0.558-0.792 0.309-1.462 0.717-2.127 1.387-0.67 0.666-1.078 1.336-1.387 2.123-0.295 0.764-0.502 1.636-0.558 2.91-0.056 1.285-0.071 1.692-0.071 4.949s0.014 3.665 0.071 4.945c0.056 1.275 0.262 2.151 0.558 2.91 0.31 0.792 0.717 1.462 1.387 2.127 0.665 0.665 1.336 1.078 2.123 1.383 0.764 0.296 1.636 0.502 2.91 0.558 1.279 0.056 1.687 0.070 4.945 0.070s3.666-0.014 4.945-0.070c1.275-0.056 2.151-0.262 2.91-0.558 0.787-0.304 1.458-0.717 2.123-1.383s1.078-1.336 1.383-2.123c0.295-0.764 0.502-1.636 0.558-2.91 0.056-1.279 0.070-1.687 0.070-4.945s-0.014-3.665-0.070-4.945c-0.056-1.275-0.262-2.151-0.558-2.91-0.296-0.797-0.703-1.467-1.373-2.133-0.665-0.665-1.336-1.078-2.123-1.383-0.764-0.295-1.636-0.502-2.91-0.558-1.284-0.061-1.692-0.075-4.949-0.075l-0.001 0.001z"></path>
      <path d="M15.997 9.835c-3.402 0-6.163 2.76-6.163 6.163s2.76 6.163 6.163 6.163 6.163-2.76 6.163-6.163c0-3.402-2.76-6.163-6.163-6.163zM15.997 19.997c-2.208 0-3.998-1.79-3.998-3.998s1.79-3.998 3.998-3.998c2.208 0 3.998 1.79 3.998 3.998s-1.79 3.998-3.998 3.998z"></path>
      <path d="M23.842 9.592c0 0.795-0.644 1.439-1.439 1.439s-1.439-0.644-1.439-1.439c0-0.795 0.644-1.439 1.439-1.439s1.439 0.644 1.439 1.439z"></path>
    </symbol>
  </defs>
</svg>
