<!-- Generated by IcoMoon.io -->
<svg version="1.1" xmlns="http://www.w3.org/2000/svg" width="32" height="32" viewBox="0 0 32 32">
<path d="M13.435 17.082h-11.618c-0.513 0-0.944-0.176-1.293-0.527s-0.524-0.784-0.524-1.3c0-0.515 0.175-0.945 0.524-1.29s0.78-0.517 1.293-0.517h11.618v-11.618c0-0.512 0.176-0.945 0.527-1.299s0.784-0.531 1.3-0.531c0.515 0 0.945 0.177 1.29 0.531s0.517 0.787 0.517 1.299v11.618h11.618c0.512 0 0.945 0.176 1.299 0.527s0.531 0.784 0.531 1.3c0 0.515-0.177 0.945-0.531 1.29s-0.787 0.517-1.299 0.517h-11.618v11.618c0 0.513-0.176 0.944-0.527 1.293s-0.784 0.524-1.3 0.524c-0.515 0-0.945-0.174-1.29-0.524s-0.517-0.78-0.517-1.293v-11.618z"></path>
</svg>
