<!-- Generated by IcoMoon.io -->
<svg version="1.1" xmlns="http://www.w3.org/2000/svg" width="32" height="32" viewBox="0 0 32 32">
<path stroke-linejoin="miter" stroke-linecap="butt" stroke-miterlimit="4" stroke-width="2" stroke="#000" fill="#000" d="M16.289 1c0.142 0.001 0.266 0.035 0.389 0.121l0.123 0.105 13.896 13.896c0.106 0.108 0.158 0.193 0.182 0.25v0.002c0.030 0.073 0.047 0.153 0.047 0.248s-0.017 0.173-0.047 0.244v0.002c-0.024 0.057-0.075 0.142-0.182 0.25l-13.908 13.896c-0.183 0.181-0.34 0.232-0.506 0.232-0.161-0-0.306-0.049-0.473-0.221l-0.010-0.010-0.104-0.121c-0.084-0.119-0.113-0.235-0.113-0.365s0.030-0.245 0.113-0.363l0.104-0.121 12.723-12.723h-26.82c-0.244-0-0.389-0.070-0.51-0.191h-0.002c-0.122-0.122-0.191-0.268-0.191-0.512s0.070-0.39 0.191-0.512h0.002c0.121-0.121 0.266-0.191 0.51-0.191h26.82l-12.711-12.711c-0.123-0.123-0.186-0.24-0.211-0.369l-0.012-0.135c-0.002-0.18 0.050-0.327 0.211-0.488l0.002-0.002c0.16-0.161 0.307-0.214 0.486-0.213z"></path>
</svg>
