<!-- Generated by IcoMoon.io -->
<svg version="1.1" xmlns="http://www.w3.org/2000/svg" width="32" height="32" viewBox="0 0 32 32">
<path d="M1.435 26.008c-0.405 0-0.745-0.139-1.021-0.416s-0.413-0.622-0.413-1.036c0-0.407 0.138-0.747 0.413-1.019s0.616-0.408 1.021-0.408h27.95c0.405 0 0.747 0.139 1.026 0.416s0.419 0.619 0.419 1.026c0 0.414-0.139 0.757-0.419 1.029s-0.621 0.408-1.026 0.408h-27.95zM1.435 16.965c-0.405 0-0.745-0.139-1.021-0.416s-0.413-0.619-0.413-1.026c0-0.407 0.138-0.746 0.413-1.019s0.616-0.408 1.021-0.408h27.95c0.405 0 0.747 0.139 1.026 0.416s0.419 0.619 0.419 1.026c0 0.407-0.139 0.746-0.419 1.019s-0.621 0.408-1.026 0.408h-27.95zM1.435 7.931c-0.405 0-0.745-0.139-1.021-0.416s-0.413-0.622-0.413-1.036c0-0.407 0.138-0.747 0.413-1.019s0.616-0.408 1.021-0.408h27.95c0.405 0 0.747 0.139 1.026 0.416s0.419 0.619 0.419 1.026c0 0.414-0.139 0.757-0.419 1.029s-0.621 0.408-1.026 0.408h-27.95z"></path>
</svg>
