<!-- Generated by IcoMoon.io -->
<svg version="1.1" xmlns="http://www.w3.org/2000/svg" width="32" height="32" viewBox="0 0 32 32">
<path fill="none" stroke-linejoin="miter" stroke-linecap="butt" stroke-miterlimit="4" stroke-width="3.2" stroke="#000" d="M16.009 6.679l2.224 5.284c0.32 0.76 1.039 1.271 1.855 1.335l5.766 0.456-4.384 3.709c-0.628 0.532-0.906 1.372-0.712 2.176l1.341 5.555c-0.002 0.001-0.003 0.003-0.004 0.003s-0.005-0.002-0.009-0.004l-4.945-2.984c-0.701-0.423-1.582-0.423-2.283 0l-4.945 2.984c-0.004 0.002-0.007 0.003-0.009 0.004-0.002-0.001-0.003-0.002-0.005-0.003l1.342-5.555c0.182-0.754-0.052-1.539-0.599-2.072l-0.114-0.104-4.385-3.709 5.767-0.456c0.816-0.065 1.535-0.575 1.855-1.335l2.223-5.284c0.003-0.001 0.006-0.001 0.010-0.001s0.006 0.001 0.009 0.001z"></path>
</svg>
