<!-- Generated by IcoMoon.io -->
<svg version="1.1" xmlns="http://www.w3.org/2000/svg" width="32" height="32" viewBox="0 0 32 32">
<path stroke-linejoin="miter" stroke-linecap="butt" stroke-miterlimit="4" stroke-width="1.6" stroke="#000" fill="#000" d="M16.724 2.657c-0.266-0.631-1.183-0.631-1.448 0l-3.133 7.443c-0.337 0.801-1.098 1.343-1.963 1.412l-8.134 0.644c-0.707 0.056-0.96 0.904-0.45 1.337l6.199 5.245c0.664 0.562 0.957 1.448 0.753 2.294l-1.895 7.842c-0.154 0.636 0.559 1.195 1.174 0.824h0.002l6.962-4.201c0.743-0.448 1.677-0.448 2.42 0l6.964 4.201c0.615 0.371 1.327-0.187 1.174-0.824l-1.895-7.842c-0.204-0.846 0.089-1.733 0.753-2.294l6.199-5.245c0.51-0.433 0.258-1.281-0.45-1.337l-8.134-0.644c-0.865-0.068-1.625-0.611-1.963-1.412l-3.133-7.443z"></path>
</svg>
